<svg id="Layer_1" data-name="Layer 1" xmlns="http://www.w3.org/2000/svg" viewBox="0 0 100 100"><path d="M86.72,68A57.19,57.19,0,0,0,76,41.51a29.87,29.87,0,0,0-11.51-9.82A8.26,8.26,0,0,0,61.34,31c-3.76-.08-7.53,0-11.29,0s-7.6-.05-11.4,0a8.32,8.32,0,0,0-3.22.74,26.38,26.38,0,0,0-4.33,2.59A39.61,39.61,0,0,0,19.7,48.22C14.91,57.38,12,67,13.06,77.48,13.83,85,17.57,90.6,24.58,93.77a41.15,41.15,0,0,0,16,3.33c6.25.19,12.51.16,18.77,0a45.36,45.36,0,0,0,13.45-2.3c7-2.37,11.78-6.94,13.58-14.28A32.82,32.82,0,0,0,86.72,68Z"/><path d="M22.89,15.56c3.6,5,8.56,8.48,13.64,11.8a2.84,2.84,0,0,0,1.52.29c3.94,0,7.88,0,11.82,0s8,0,12,0a3.26,3.26,0,0,0,1.7-.39A55.65,55.65,0,0,0,76.06,16.92a12.6,12.6,0,0,0,3.16-6.2A4.77,4.77,0,0,0,74.09,5a10,10,0,0,0-2.9.89c-1.72.79-3.44,1.61-5.07,2.56-3,1.74-5.58,1.22-8-1.13a28.16,28.16,0,0,0-3.85-3.11,7.22,7.22,0,0,0-8.58,0c-.82.54-1.57,1.18-2.34,1.8-1,.83-2.06,1.7-3.11,2.52a4.29,4.29,0,0,1-4.74.6c-1.37-.63-2.73-1.29-4.1-1.92a32.79,32.79,0,0,0-4.51-2,4.68,4.68,0,0,0-6.05,5.73A13.33,13.33,0,0,0,22.89,15.56Z"/></svg>