<svg id="Layer_1" data-name="Layer 1" xmlns="http://www.w3.org/2000/svg" viewBox="0 0 95.52 56.51"><path d="M97.76,67.63A3.33,3.33,0,0,1,94.1,69.7c-1.3-.1-2.61,0-3.9,0-1.76,5.61-5.4,8.86-11.38,8.51-5.21-.31-8.37-3.47-9.84-8.51H68.1q-13.24,0-26.48,0c-.7,0-1,.16-1.2.89a10.63,10.63,0,0,1-10.36,7.71,10.75,10.75,0,0,1-10.25-7.75c-.08-.27-.15-.53-.24-.83H14.22a2.78,2.78,0,0,1-3-3c0-2.39,0-4.79,0-7.18v-1c-2,0-3.93,0-5.85,0a2.81,2.81,0,1,1,0-5.58H29.77a3,3,0,0,0,2.94-1.57,2.77,2.77,0,0,0-2.5-4c-1.49,0-3,0-4.48,0H5.12a2.79,2.79,0,0,1-.84-5.48,4.1,4.1,0,0,1,1.11-.1H21.62a2.8,2.8,0,0,0,3.07-3.06,2.33,2.33,0,0,0-2.5-2.33c-.81-.06-1.62,0-2.43,0H8.1a2.81,2.81,0,1,1,0-5.59h3.06c0-.31,0-.57.06-.84V25c0-2.21,1-3.27,3.23-3.27h50.3V38c0,2.27,1.09,3.35,3.38,3.35H88.83A9.15,9.15,0,0,1,97.28,47c.18.52.32,1.06.48,1.59ZM30.18,62.41a5.13,5.13,0,1,0,5.09,5.14A5.19,5.19,0,0,0,30.18,62.41Zm54.52,5.1a5.13,5.13,0,1,0-5.08,5.15A5.19,5.19,0,0,0,84.7,67.51Z" transform="translate(-2.24 -21.74)"/><path d="M70.38,35.67V22.36c7.68,1.47,11.79,7,15.3,13.31Z" transform="translate(-2.24 -21.74)"/></svg>