<svg id="Layer_1" data-name="Layer 1" xmlns="http://www.w3.org/2000/svg" viewBox="0 0 100 100"><path d="M98.53,24.78c-.51,2.4-1,4.8-1.53,7.2-1.85,9.23-3.64,18.48-5.56,27.7a11.69,11.69,0,0,1-9.13,9.54,13.42,13.42,0,0,1-3.29.33c-14.71,0-29.43-.06-44.15,0A12.52,12.52,0,0,1,22.3,58.39c-.79-6.73-1.94-13.42-2.91-20.12Q18,28.87,16.66,19.46c-.26-1.84-.52-3.68-.8-5.52-.18-1.18-.49-1.43-1.69-1.44-2.84,0-5.68,0-8.53,0a4,4,0,0,1-3.8-2.65A4.16,4.16,0,0,1,2.56,5.3,3.92,3.92,0,0,1,5.62,3.8c3.47,0,7-.06,10.41.16a9.21,9.21,0,0,1,8,6.9c.58,2.51.94,5.08,1.29,7.63.11.83.37,1,1.16,1,22.14,0,44.28,0,66.42-.05,2.71,0,4.66.79,5.62,3.43Z"/><path d="M75,73.62a11.3,11.3,0,1,1-11.3,11.24A11.27,11.27,0,0,1,75,73.62Z"/><path d="M36.28,73.65a11.28,11.28,0,0,1-.09,22.56,11.28,11.28,0,0,1,.09-22.56Z"/></svg>