<svg id="Layer_1" data-name="Layer 1" xmlns="http://www.w3.org/2000/svg" viewBox="0 0 100 100"><path d="M98.06,26a11.4,11.4,0,0,1-3.46,8C91,37.83,87.3,41.63,83.43,45.18c-5.13,4.69-11.92,4.78-17.11.13A151.51,151.51,0,0,1,54.78,33.76c-4.48-5-4.61-11.56-.21-16.57a131,131,0,0,1,12-12,11.88,11.88,0,0,1,16.4,0C87.32,9,91.31,13.28,95.29,17.51,97.38,19.74,98.05,22.29,98.06,26Z"/><path d="M42.69,26c-.19,2.8-.16,6.34-.72,9.77a11.64,11.64,0,0,1-10.39,9.52c-5.87.36-11.77.29-17.66.17A12,12,0,0,1,8.83,44C4.25,41.64,2.05,37.62,2,32.54c-.07-5.36-.07-10.74.2-16.1A12,12,0,0,1,13.28,5.32q8.94-.37,17.88,0c5.55.22,10.44,5,11,10.59C42.52,19,42.51,22.16,42.69,26Z"/><path d="M42.75,77.94c-.25,3.49-.23,7-.79,10.46a11.86,11.86,0,0,1-10.77,9.53c-6,.22-11.93.24-17.88,0A12,12,0,0,1,2.21,87c-.29-6.09-.29-12.22,0-18.32A11.77,11.77,0,0,1,12.8,58c5.87-.39,11.77-.29,17.66-.18a11.78,11.78,0,0,1,5,1.35,12.3,12.3,0,0,1,7,11.18c.09,2.53,0,5.07,0,7.61Z"/><path d="M54.3,77.24A93.69,93.69,0,0,1,55,67.53,11.69,11.69,0,0,1,65.36,58c5-.38,10.06-.27,15.09-.31A22,22,0,0,1,84.9,58a12.07,12.07,0,0,1,9.91,11.19c.26,5.91.25,11.85,0,17.76A12,12,0,0,1,83.87,97.91c-6.06.28-12.15.27-18.21,0-5.43-.24-10.27-5.1-10.85-10.53C54.48,84.24,54.48,81.06,54.3,77.24Z"/></svg>