<svg id="Layer_1" data-name="Layer 1" xmlns="http://www.w3.org/2000/svg" viewBox="0 0 100 100"><path d="M45.22,98.82A7.35,7.35,0,0,1,40,96.58c-2.66-2.63-5.32-5.27-7.94-7.94a7.66,7.66,0,0,1-1.38-9.14,7.52,7.52,0,0,0-5.52-11,7.21,7.21,0,0,0-4.43.66c-3.93,1.81-6.85,1.28-9.91-1.78Q7.27,63.84,3.7,60.25c-3.39-3.41-3.4-7.9,0-11.31Q26.32,26.31,49,3.71a7.55,7.55,0,0,1,11.24,0Q64,7.4,67.71,11.18a7.66,7.66,0,0,1,1.58,9.35c-2.55,5.42,1.18,11.31,7,11a9,9,0,0,0,3.18-.87,7.77,7.77,0,0,1,9.29,1.57q3.77,3.75,7.51,7.52c3.38,3.41,3.38,7.91,0,11.31Q73.71,73.69,51.14,96.27A8,8,0,0,1,45.22,98.82Zm8-48.82c0-4.28,0-8.56,0-12.84a3.23,3.23,0,1,0-6.46,0q0,12.88,0,25.78A3.1,3.1,0,0,0,48,65.47a3,3,0,0,0,3.41.39,3.23,3.23,0,0,0,1.84-3.12C53.25,58.49,53.24,54.25,53.24,50ZM37.85,42.69a4.28,4.28,0,1,0-.08,8.56,4.28,4.28,0,1,0,.08-8.56ZM62.19,57.34a4.28,4.28,0,0,0,.11-8.55,4.28,4.28,0,1,0-.11,8.55Z"/></svg>