<svg id="Layer_1" data-name="Layer 1" xmlns="http://www.w3.org/2000/svg" viewBox="0 0 100 100"><path d="M98.5,13.54a29.51,29.51,0,0,1-2,2.35Q75.29,37.17,54,58.43c-.25.24-.49.5-.74.73a3,3,0,0,1-4.4,0q-9-9-18-18a3,3,0,0,1-.1-4.4,3.06,3.06,0,0,1,4.47.16q7.53,7.52,15,15c.25.25.46.52.72.83.36-.33.63-.58.89-.84q20.49-20.49,41-41a3.33,3.33,0,0,1,3.55-1.16,3.66,3.66,0,0,1,2.06,2.06Z"/><path d="M90.32,49.94c.33,18.92-12.19,36.21-30.53,42.24a41.42,41.42,0,0,1-19.66,1.74c-17.49-2.8-29.86-12.41-35.74-29C-2,46.79,2.33,30.67,16.08,17.32A41.67,41.67,0,0,1,40.48,6a43.74,43.74,0,0,1,29.33,6.53,3,3,0,0,1,1.54,3.19,2.83,2.83,0,0,1-2.62,2.46,3.93,3.93,0,0,1-2.21-.57,37.23,37.23,0,0,0-13.64-5.27c-12.42-2-23.42,1.1-32.76,9.56a36.28,36.28,0,0,0-12,22.57C6.39,57.73,10.5,69.1,20.31,78.28A36.62,36.62,0,0,0,41.67,88,38.3,38.3,0,0,0,82.41,62a37.35,37.35,0,0,0,1.78-15.46A3.16,3.16,0,0,1,86,43.15a2.88,2.88,0,0,1,3.43.77,5.68,5.68,0,0,1,.75,1.59,2.87,2.87,0,0,1,.13.93C90.33,47.6,90.32,48.77,90.32,49.94Z"/></svg>