<svg id="Layer_1" data-name="Layer 1" xmlns="http://www.w3.org/2000/svg" viewBox="0 0 100 100"><path d="M71.36,97V95.58c0-8.09,0-16.19,0-24.29A21.37,21.37,0,0,0,29.09,66.6a27,27,0,0,0-.45,4.92c0,8,0,16,0,24.08v1.26A5.73,5.73,0,0,1,28,97c-3.59,0-7.19.08-10.77-.07A16.77,16.77,0,0,1,1.85,83.36a23.18,23.18,0,0,1-.32-4c0-12.22,0-24.43,0-36.65a17.24,17.24,0,0,1,7.86-15C19.6,20.6,29.78,13.42,40,6.28a16.84,16.84,0,0,1,19.84-.1Q75.48,17.06,91,28a16.55,16.55,0,0,1,7.41,14.18c0,12.57.07,25.14,0,37.7A16.65,16.65,0,0,1,83.89,96.77a64.41,64.41,0,0,1-8.23.19C74.27,97,72.87,97,71.36,97Z"/><path d="M35.38,96.89c0-.39-.05-.73-.05-1.07,0-8.14,0-16.27,0-24.4a14.64,14.64,0,0,1,29.23-1.59c.16,2.85.09,5.7.09,8.55,0,5.74,0,11.48,0,17.21v1.3Z"/></svg>