<svg id="Layer_1" data-name="Layer 1" xmlns="http://www.w3.org/2000/svg" viewBox="0 0 100 100"><path d="M50,3.82c1.66,1.27,3.31,2.56,5,3.8q6.93,5.11,13.88,10.2c1.18.86,1.17,1.06,0,1.95L50.83,33a2.79,2.79,0,0,1-.59.42,1.57,1.57,0,0,1-1,.15c-.2-.08-.34-.54-.34-.83,0-2.55,0-5.11,0-7.67V23.5a55.89,55.89,0,0,0-6,1C33.9,27,27.76,32.83,25,41.82,22.5,49.73,23.89,57.19,28.65,64a14.07,14.07,0,0,1,1.41,2.19,4.84,4.84,0,0,1-8,5.18,31.31,31.31,0,0,1-5.35-8.82,33.26,33.26,0,0,1-2.42-17c1.56-12.54,8-21.8,19.12-27.75A33.51,33.51,0,0,1,48.27,14l.64,0V11.74c0-2.26,0-4.51,0-6.77a4.72,4.72,0,0,1,.35-1.15Z"/><path d="M51.12,76.44A25.51,25.51,0,0,0,75.75,55.61a24.55,24.55,0,0,0-4.28-19.43,10.57,10.57,0,0,1-1.73-3.1,4.65,4.65,0,0,1,2.62-5.46,4.86,4.86,0,0,1,5.92,1.43,34.26,34.26,0,0,1,5.08,8.58,33.21,33.21,0,0,1,2.36,17C83.94,68.3,76.66,78,64,83.54a32.64,32.64,0,0,1-12.26,2.62l-.64,0v1c0,2.68,0,5.36,0,8,0,.32-.14.84-.34.91a1.33,1.33,0,0,1-1-.22Q40.26,89,30.87,82.09c-.81-.6-.8-.94,0-1.52q9.38-6.9,18.77-13.77c.29-.21.84-.42,1.09-.29s.38.7.38,1.07c0,2.59,0,5.18,0,7.77Z"/></svg>