<svg id="Layer_1" data-name="Layer 1" xmlns="http://www.w3.org/2000/svg" viewBox="0 0 93.06 93.06"><path d="M96.53,48.7v2.55a2.81,2.81,0,0,0-.19.39,9.39,9.39,0,0,1-5.9,6.85A12.65,12.65,0,0,0,87.68,60c-2,1.46-3.78,3.11-4.05,5.75a13.36,13.36,0,0,0,1,6.84,9.55,9.55,0,0,1,.81,4.77,8.93,8.93,0,0,1-12,7.55,26.15,26.15,0,0,0-4.25-1.23C66,83.14,63,83.77,61,86.56a23.78,23.78,0,0,0-2.59,4.22,9.46,9.46,0,0,1-4.43,4.73,27.89,27.89,0,0,1-2.68,1H48.7c-.25-.09-.49-.2-.75-.27a9.33,9.33,0,0,1-6.35-5.49A15.15,15.15,0,0,0,40,87.83c-1.46-2.06-3.15-3.9-5.87-4.2a13.27,13.27,0,0,0-6.76,1,9.89,9.89,0,0,1-4.49.85A8.92,8.92,0,0,1,15,73.52a25.84,25.84,0,0,0,1.25-4.34c.55-3.18-.11-6-2.73-8.18a24.25,24.25,0,0,0-4.95-3,8.53,8.53,0,0,1-5.09-8,8.66,8.66,0,0,1,5-8.1A35.13,35.13,0,0,0,12.1,40c2.1-1.46,3.94-3.19,4.21-6a13.28,13.28,0,0,0-1-6.76,9.76,9.76,0,0,1-.82-4.59A8.94,8.94,0,0,1,26.41,15a27.47,27.47,0,0,0,4.33,1.26c3.54.65,6.58-.31,8.69-3.35a44.16,44.16,0,0,0,2.5-4.4A8.94,8.94,0,0,1,58,8.48a36.21,36.21,0,0,0,1.91,3.59c1.45,2.11,3.17,4,5.92,4.25a13.5,13.5,0,0,0,6.76-1,9.73,9.73,0,0,1,4.32-.85,8.92,8.92,0,0,1,8,12,26.18,26.18,0,0,0-1.24,4.25c-.59,3.33.11,6.3,3,8.41a23.14,23.14,0,0,0,4.1,2.47A9.5,9.5,0,0,1,95.51,46C95.93,46.87,96.19,47.8,96.53,48.7ZM50.08,67.05A17.06,17.06,0,1,0,32.92,50.12,17,17,0,0,0,50.08,67.05Z" transform="translate(-3.47 -3.47)"/></svg>